<?xml version="1.0" encoding="utf-8"?>
<!-- Generator: Adobe Illustrator 16.0.0, SVG Export Plug-In . SVG Version: 6.00 Build 0)  -->
<!DOCTYPE svg PUBLIC "-//W3C//DTD SVG 1.1//EN" "http://www.w3.org/Graphics/SVG/1.1/DTD/svg11.dtd">
<svg version="1.1" id="Layer_1" xmlns="http://www.w3.org/2000/svg" xmlns:xlink="http://www.w3.org/1999/xlink" x="0px" y="0px"
	 width="58.927px" height="65.212px" viewBox="0 0 58.927 65.212" enable-background="new 0 0 58.927 65.212" xml:space="preserve">
<g>
	<path fill="none" stroke="#000000" stroke-width="2" stroke-linejoin="round" stroke-miterlimit="10" d="M52.019,22.729
		C52.019,8.901,38.962,1,27.109,1C12.38,1,1,12.552,1,27.281c0,8.363,2.749,16.211,10.993,21.101v15.83h27.483v-9.555
		c5.497,0.029,8.294-0.368,10.221-2.298c2.469-2.469,2.233-12.883,2.233-12.883s2.346,0.089,4.117,0.017
		c0.617-0.027,1.229-0.339,1.58-0.843c0.354-0.505,0.242-1.117,0.287-1.731C58.232,32.504,52.019,24.93,52.019,22.729z"/>
	<polygon fill="none" stroke="#000000" stroke-width="2" stroke-linejoin="round" stroke-miterlimit="10" points="26.041,9.245 
		35.768,9.245 31.027,20.238 38.347,20.238 22.455,44.152 25.59,28.483 18.1,28.483 	"/>
</g>
</svg>
