<?xml version="1.0" encoding="utf-8"?>
<!-- Generator: Adobe Illustrator 16.0.0, SVG Export Plug-In . SVG Version: 6.00 Build 0)  -->
<!DOCTYPE svg PUBLIC "-//W3C//DTD SVG 1.1//EN" "http://www.w3.org/Graphics/SVG/1.1/DTD/svg11.dtd">
<svg version="1.1" id="Layer_1" xmlns="http://www.w3.org/2000/svg" xmlns:xlink="http://www.w3.org/1999/xlink" x="0px" y="0px"
	 width="131px" height="108px" viewBox="0 0 131 108" enable-background="new 0 0 131 108" xml:space="preserve">
<path fill="#FF954D" d="M99,0H86h-1H46H0v108h46h5.751c0,0,1.157-41.666,1.202-44.115c-0.467,0.095-2.6,1.921-3.684,1.415
	c-0.569-0.353-1.216-0.865-0.339-1.802c0.875-0.82,1.919-0.9,2.029-1.939c0.14-1.316-1.438-1.182-2.655-1.688
	c0.106-1.142,1.243-1.251,1.931-1.812c-0.397-1.502-2.826,0.496-3.984-0.361c-0.538-0.813-0.136-2.04,0.483-2.414l1.69-0.725
	c1.238-0.735,3.583-1.507,2.776-3.499c-1.357-0.021-3.428,2.167-4.863,0.571c-0.781-2.042,2.907-2.487,4.018-4.192
	c0.062-0.864-1.234-0.375-1.569-0.844c-0.64-2.62,5.684-1.086,3.501-4.586c-1.051-0.459-1.703,0.34-2.776,0.241
	c-1.134-1.737,0.785-2.403,1.931-3.258c0.761-0.568,1.626-1.133,1.569-1.69c-0.105-1.02-0.954-0.551-1.811-0.724
	c-0.872-1.633,1.154-1.856,2.174-2.293c0.223-0.817-0.022-1.46,0.723-1.569c1.126-0.163,0.867,2.149,1.328,2.897
	c0.588,0.954,1.749,1.06,3.018,1.81c0.449,0.265,1.851,0.803,1.69,1.689c-0.207,1.137-3.15,0.4-3.018,2.173
	c0.066,0.881,0.99,0.827,2.052,1.327c0.324,0.152,1.794,0.825,1.811,1.448c0.016,0.553-0.447,0.88-0.845,0.966
	c-0.841,0.179-2.182-0.812-3.018-0.725c-0.605,0.062-1.124,0.324-1.207,0.845c-0.35,2.186,4.76,1.602,5.673,2.776
	c0.574,0.723,0.363,1.326-0.12,1.93c-1.506,0.983-4.404-1.061-6.036,0.363c-0.095,0.454,0.061,1.383,0,2.172
	c2.935,0.607,3.943,1.295,4.042,1.341c1.557,0.72,3.381,2.01,3.805,2.399c0.451,0.417,1.511,1.879,0.12,2.294
	c-1.369,0.407-2.454-0.976-3.621-1.448c-0.893-0.361-4.366-1.172-4.224,0.481c0.088,1.048,1.645,0.627,2.534,0.967
	c0.503,0.191,2.185,1.224,2.173,1.931c-0.013,0.77-0.587,1.025-1.932,0.965c0.457,2.104-1.975,3.092-3.702,2.623
	c0.194,2.783,0.976,44.06,0.976,44.06h15.376c0,0,1.246-51.124,1.302-54.128c-0.573,0.116-3.19,2.355-4.519,1.736
	c-0.699-0.435-1.492-1.062-0.416-2.211c1.072-1.007,2.354-1.104,2.488-2.38c0.172-1.616-2.814-0.749-2.912-2.261
	c0.129-1.399,1.18-1.347,2.023-2.034c-0.486-1.843-3.571,0.318-4.991-0.734c-0.66-0.998-0.063-2.212,0.697-2.671l2.073-0.889
	c1.519-0.903,4.395-1.85,3.406-4.294c-1.666-0.024-4.639,3.098-6.08,0.654c-0.395-2.812,3.679-3.004,5.042-5.096
	c0.074-1.063-1.515-0.46-1.926-1.036c-0.785-3.215,6.973-1.333,4.295-5.627c-1.289-0.564-2.089,0.417-3.406,0.296
	c-1.391-2.132,0.965-2.95,2.369-3.998c0.935-0.697,1.996-1.39,1.926-2.073c-0.129-1.253-1.172-0.676-2.221-0.889
	c-0.563-1.877,1.414-2.278,2.666-2.813c0.177-0.648,0.118-1.203,0.297-1.553h1.365c0.499,0.771,0.435,2.501,0.854,3.182
	c0.721,1.17,2.146,1.302,3.702,2.222c0.551,0.323,2.271,0.984,2.072,2.071c-0.254,1.396-3.863,0.492-3.701,2.666
	c0.08,1.081,1.213,1.016,2.518,1.629c0.396,0.188,2.2,1.014,2.221,1.778c0.02,0.677-0.549,1.079-1.037,1.185
	c-1.031,0.22-2.677-0.995-3.701-0.89c-0.742,0.076-1.379,0.397-1.481,1.037c-0.429,2.681,5.84,1.964,6.96,3.406
	c0.704,0.887,0.445,1.627-0.148,2.368c-1.847,1.207-5.401-1.302-7.403,0.444c-0.117,0.558,0.073,1.698,0,2.665
	c3.6,0.745,4.837,1.589,4.958,1.646c1.91,0.884,4.184,2.466,4.703,2.943C85.313,44.672,86,45.491,86,46.185V44l0,0v4l0,0v-1.806
	c0,0.415-0.246,0.784-0.883,0.974c-1.681,0.5-3.029-1.197-4.461-1.777c-1.096-0.443-5.365-1.438-5.19,0.592
	c0.108,1.285,2.013,0.769,3.104,1.186c0.617,0.235,2.678,1.502,2.663,2.369c-0.017,0.945-0.721,1.259-2.371,1.184
	c0.561,2.582-2.424,3.793-4.542,3.22c0.238,3.413,0.771,54.06,0.771,54.06H84h1.93H86h12h33V0H99z"/>
</svg>
